<svg width="55" height="37" viewBox="0 0 55 37" fill="none" xmlns="http://www.w3.org/2000/svg">
<g id="Group 18">
<g id="Group 15">
<rect id="Rectangle 2" x="0.386357" y="0.386357" width="54.2273" height="36.2273" rx="6.864" fill="#F8F8F8" stroke="#EAEAEA" stroke-width="0.772714"/>
</g>
<path id="Arrow 4" d="M37 19C37.5523 19 38 18.5523 38 18C38 17.4477 37.5523 17 37 17V19ZM16.2929 17.2929C15.9024 17.6834 15.9024 18.3166 16.2929 18.7071L22.6569 25.0711C23.0474 25.4616 23.6805 25.4616 24.0711 25.0711C24.4616 24.6805 24.4616 24.0474 24.0711 23.6569L18.4142 18L24.0711 12.3431C24.4616 11.9526 24.4616 11.3195 24.0711 10.9289C23.6805 10.5384 23.0474 10.5384 22.6569 10.9289L16.2929 17.2929ZM37 17L17 17V19L37 19V17Z" fill="#D1D1D1"/>
</g>
</svg>
