<svg width="72" height="127" viewBox="0 0 72 127" fill="none" xmlns="http://www.w3.org/2000/svg">
<path d="M59.9272 75.7408C62.5981 78.4677 68.5028 85.8235 69.8684 89.9066M57.832 97.1782C59.3543 97.7044 60.1642 98.2066 61.754 99.2855C61.3874 98.4056 61.4446 97.9258 61.9518 97.1782M61.9518 90.3036C63.0804 89.9726 64.0277 89.7748 64.9303 89.6978M61.754 99.3977C62.5259 99.8477 62.8317 100.55 63.7305 100.55C64.6293 100.55 69.8684 100.55 69.8684 100.55C70.6094 100.288 70.9472 100.041 71.1712 99.072C71.5227 97.9421 70.1887 97.3615 70.4697 96.6419C70.5071 96.6376 70.8296 95.6017 70.9958 94.9383C71.1685 93.8578 70.9775 93.2925 70.3194 92.3328C70.6222 91.2455 70.4817 90.8269 69.8684 90.3036C69.2482 90.1417 68.6829 90.0088 68.1512 89.9066C67.6352 89.8074 67.1509 89.7372 66.6787 89.6978C66.0897 89.6487 65.5196 89.6476 64.9303 89.6978M61.9518 97.1782C63.5074 97.1253 64.3796 97.0956 65.9352 97.0427M61.9518 97.1782C61.6506 96.3531 61.5099 95.7319 61.546 95.0845M61.9518 90.4288C61.4878 91.5841 61.5089 92.2432 61.9518 93.4351C61.7065 94.0708 61.5737 94.5855 61.546 95.0845M62.1021 92.7587C63.7125 92.5868 64.3347 92.7763 65.9352 92.7587M61.8425 90.4288C60.7636 90.1919 60.2932 90.3009 59.7773 90.9371C58.8844 93.193 59.3285 94.0763 61.546 95.0845M63.4996 17.5746L64.3884 26.8573M64.9303 64.9757V89.6978M63.6951 17.297H64.2465C64.3818 16.5738 64.3657 16.1254 64.0627 15.3366M62.2452 15.1935C62.0733 16.0117 62.075 16.4798 62.2452 17.297C62.7716 17.297 63.0667 17.297 63.593 17.297" stroke="black" stroke-width="0.547899" stroke-linecap="round"/>
<path d="M14.2677 103.229C16.351 103.422 19.5013 103.181 19.5013 104.585C19.5013 105.988 19.5013 107.273 19.5013 107.487C19.5013 107.701 16.1863 107.718 14.0537 106.607M25.1653 78.254C25.7028 81.203 26.2577 82.2325 27.5192 83.4065C28.2361 83.7285 32.4023 81.756 33.9502 80.2156M33.4562 78.7509C33.3591 80.0942 37.0759 83.2625 39.2102 78.7509M38.7794 80.0073C40.9209 81.9642 42.2555 82.7382 44.9381 83.4065C47.1425 82.662 47.7559 81.4416 47.7366 77.7047L48.3576 100.271M56.8851 76.3131L58.5237 112.989L48.7617 114.955L48.3576 100.271M52.5477 76.7949C53.2626 79.2277 53.8228 80.3214 55.1019 81.7589C51.7351 88.7402 50.2786 92.7887 48.3576 100.271" stroke="black" stroke-width="0.547899" stroke-linecap="round"/>
<path d="M58.0264 102.111L52.6762 103.883L53.0306 106.859L58.0264 105.477M34.9677 80.8119V90.6139M37.7137 80.8119L38.0951 90.4996M34.9677 90.9382C33.7956 90.934 33.2088 90.9842 32.2979 91.2052C32.2979 91.2052 32.6086 97.2966 32.6221 97.441C32.6356 97.5855 40.5932 97.7455 40.498 97.6317C40.4028 97.518 40.9175 91.3577 40.9175 91.3577C39.8081 90.8022 39.1899 90.6303 38.0951 90.6139M34.0905 92.2922C33.9611 94.0065 34.0095 94.9825 34.491 96.602C36.2587 96.9453 37.2586 96.9325 39.0678 96.602C39.3121 94.9379 39.3479 93.9953 39.1822 92.2922C37.1877 92.1411 36.085 92.1288 34.0905 92.2922Z" stroke="black" stroke-width="0.547899" stroke-linecap="round"/>
<path d="M24.6673 92.1046H26.6785M26.6785 92.1046V97.3122L24.6673 97.1005M26.6785 92.1046C26.6785 92.1046 26.9112 91.5464 27.4829 91.4907C28.0546 91.435 28.6626 91.4907 28.7319 91.7025C28.8011 91.9142 28.9224 97.6933 28.9224 97.6933M28.9224 97.6933L27.991 98.1378C27.3827 98.3738 27.0822 98.2912 26.6785 97.5028M28.9224 97.6933L32.2421 97.3122M32.1824 92.1046C30.9025 92.1804 30.2023 92.1693 28.9224 92.1046M41.1369 92.1046H43.3385L43.4867 96.9524M43.4867 96.9524L40.65 97.2276M43.4867 96.9524C43.9413 97.3575 43.9304 97.9897 44.651 97.9897C45.3715 97.9897 45.7517 97.4604 45.7517 97.4604M45.7517 97.4604L45.54 92.1046M45.7517 97.4604L47.9956 96.9524M45.54 92.1046C45.4744 91.6579 45.5056 91.3686 44.9261 91.2156C44.0809 91.1852 43.592 91.4712 43.3385 91.9566M45.54 92.1046H47.7628M18.6562 115.676V125.983M57.0535 113.787L57.4469 125.983M36.5959 125.983C36.2199 120.793 36.321 117.872 37.304 112.607C39.4332 117.473 39.5641 120.493 39.4285 125.983M36.9149 97.6933L37.304 111.849M35.3495 111.849C37.0403 112.408 37.9322 112.328 39.4855 111.545" stroke="black" stroke-width="0.547899" stroke-linecap="round"/>
<path d="M65.6514 41.2902C66.5544 41.8209 67.0625 42.1771 67.999 43.9507C68.5593 46.7968 68.5204 48.2389 67.999 50.5755L66.4339 57.3569C66.5466 59.9102 66.7721 61.1241 66.9555 62.2081C67.238 64.0103 66.3772 64.4486 63.5127 64.4512" stroke="black" stroke-width="0.547899" stroke-linecap="round"/>
<path d="M8.21699 61.0519C7.16351 71.6484 7.63216 74.2534 9.71415 75.0029C10.997 75.3736 11.5058 75.6389 12.7401 75.9461M62.2513 60.2352C64.31 68.3452 64.2714 71.9984 60.2097 75.4791C42.2954 78.6631 30.2672 79.8828 15.2029 76.4293M12.7401 75.9461C13.3165 76.0895 14.6355 76.2992 15.2029 76.4293M12.7401 75.9461C8.15043 78.3759 4.62599 98.5727 5.9199 108.358M5.73881 108.151L6.10066 108.565M6.10066 108.565V110.944L13.8062 111.461V109.082L15.2029 76.4293M6.10066 108.565L13.4959 109.082" stroke="black" stroke-width="0.547899" stroke-linecap="round"/>
<path d="M3.49059 42.9636C1.98412 43.6331 1.39958 44.2991 0.692572 45.8202C0.30861 47.8004 0.25907 48.9108 0.692572 50.8915C1.21611 52.1891 1.50964 52.9166 2.03318 54.2142C2.63099 57.2702 2.37637 58.9117 2.03318 61.8506C2.17497 64.4064 2.31078 64.5712 2.55781 64.7653C4.13681 66.3922 5.07308 66.6265 6.81321 66.2809" stroke="black" stroke-width="0.547899" stroke-linecap="round"/>
<path d="M4.31322 49.4727C3.78338 49.7382 3.58455 49.9871 3.35597 50.5451C3.25104 51.2626 3.25173 51.6622 3.44037 52.3663C3.64997 52.8236 3.76749 53.0799 3.97709 53.5372C4.24263 54.6247 4.17851 55.2184 4.10418 56.2795C4.19763 57.1949 4.24914 57.2518 4.34109 57.3174C4.9352 57.8754 5.27532 57.944 5.89446 57.7909" stroke="black" stroke-width="0.196967" stroke-linecap="round"/>
<path d="M28.9162 48.0851C25.3946 47.4992 23.1027 47.3639 20.18 47.6883C19.3351 47.7821 18.4375 47.9143 17.4423 48.0851C15.9006 48.8535 15.4215 49.3002 14.5737 50.3262M11.7051 52.5673C12.8253 51.6921 13.2245 51.6554 14.5737 50.3262M14.5737 50.3262C13.0907 50.8938 12.4313 51.0588 11.7051 50.9538" stroke="black" stroke-width="0.547899" stroke-linecap="round"/>
<path d="M42.4345 47.9389C45.905 47.102 48.1813 46.8027 51.1198 46.9167C51.9692 46.9497 52.874 47.0172 53.8789 47.1162C55.4717 47.7721 55.9816 48.1833 56.9008 49.1459M59.9227 51.1755C58.7426 50.3829 58.3418 50.3749 56.9008 49.1459M56.9008 49.1459C58.4206 49.6057 59.0902 49.723 59.807 49.5661" stroke="black" stroke-width="0.547899" stroke-linecap="round"/>
<path d="M45.3727 56.9657C45.3727 58.486 44.3559 59.9189 42.5912 60.9899C40.8328 62.0571 38.3816 62.7283 35.6559 62.7283C32.9302 62.7283 30.4791 62.0571 28.7206 60.9899C26.956 59.9189 25.9391 58.486 25.9391 56.9657C25.9391 55.4455 26.956 54.0126 28.7206 52.9416C30.4791 51.8744 32.9302 51.2032 35.6559 51.2032C38.3816 51.2032 40.8328 51.8744 42.5912 52.9416C44.3559 54.0126 45.3727 55.4455 45.3727 56.9657Z" stroke="black" stroke-width="0.684874"/>
<path d="M64.4021 42.7385C65.8611 43.744 66.0364 45.774 65.8471 50.5296C65.4598 50.8062 65.2427 50.9613 64.8555 51.2378C64.9151 54.2 64.9523 57.8262 64.4021 58.9154C63.8519 60.0047 63.5176 59.6351 62.7307 59.7654L46.4404 60.1053" stroke="black" stroke-width="0.547899" stroke-linecap="round"/>
<path d="M33.0283 43.0255L33.2665 48.126C35.2293 48.618 36.3209 48.6358 38.2816 48.126L38.2815 42.9208" stroke="black" stroke-width="0.547899" stroke-linecap="round"/>
<path d="M8.8081 46.616C7.46406 49.6516 7.86719 53.641 9.29066 58.0344H24.6492C24.8219 57.218 24.9187 56.7602 25.0914 55.9438H19.3421C23.2279 55.948 24.9196 55.3092 26.8605 52.848C28.0234 51.6859 28.8405 51.2411 30.5996 50.7573C30.6384 48.816 30.5068 47.7874 30.2377 45.8522C21.8622 45.4991 17.1722 45.5466 8.8081 46.616Z" stroke="black" stroke-width="0.547899" stroke-linecap="round"/>
<path d="M62.4049 45.756C63.8042 48.7665 63.474 52.7626 62.131 57.1813L46.775 57.4618C46.8679 56.6522 47.072 55.9304 46.6373 55.1149L52.5243 55.1149C48.6393 55.1902 46.4548 54.742 44.4694 52.3167C43.2854 51.176 42.4603 50.7462 40.6927 50.2946C40.6185 48.3543 40.7312 47.3235 40.9649 45.3837C49.3326 44.8777 54.0227 44.8395 62.4049 45.756Z" stroke="black" stroke-width="0.547899" stroke-linecap="round"/>
<path d="M24.4272 60.827C25.4332 60.8929 20.1409 66.1959 15.0557 70.2564C31.5459 64.0067 40.517 64.0455 56.1245 69.3786C52.0162 66.3419 49.8406 64.4154 46.3401 60.3118" stroke="black" stroke-width="0.547899" stroke-linecap="round"/>
<path d="M40.792 38.6875C39.0104 39.8344 38.5131 40.7353 38.2822 42.6918L64.1885 42.4526C65.5922 40.327 65.6605 39.4459 64.8758 38.2694C64.9201 38.4513 59.426 39.6726 59.2881 39.2255C59.1503 38.7785 59.0206 38.2694 58.8101 38.4785C58.5995 38.6877 57.1409 38.6825 56.1507 39.2255V38.0602C55.3966 38.4349 54.9813 38.5162 54.2383 38.6875C51.9796 38.498 50.691 38.5683 48.3818 38.8969C47.9335 38.5358 48.0895 38.3649 48.3818 38.0602C46.5891 38.0607 45.6741 38.2886 44.3778 39.4646V38.0602C42.9393 38.4436 42.289 38.7394 41.1208 39.6438L40.792 38.6875Z" stroke="black" stroke-width="0.547899" stroke-linecap="round"/>
<g clip-path="url(#clip0_537_51)">
<path d="M51.9397 81.5201C51.8904 81.4821 51.8342 81.4542 51.7741 81.438C51.7141 81.4218 51.6515 81.4176 51.5898 81.4256C51.5282 81.4336 51.4687 81.4536 51.4148 81.4846C51.3609 81.5156 51.3136 81.5569 51.2757 81.6062L51.1969 81.7084L51.0947 81.6297C50.9953 81.553 50.8694 81.5191 50.7449 81.5352C50.6204 81.5514 50.5074 81.6163 50.4307 81.7158C50.3541 81.8153 50.3201 81.9411 50.3363 82.0656C50.3524 82.1901 50.4174 82.3032 50.5169 82.3798L51.3692 83.0364L52.0258 82.1841C52.0637 82.1348 52.0916 82.0786 52.1078 82.0185C52.124 81.9585 52.1283 81.8959 52.1203 81.8342C52.1123 81.7726 52.0922 81.7131 52.0612 81.6592C52.0302 81.6053 51.9889 81.558 51.9397 81.5201Z" stroke="#1E1E1E" stroke-width="0.161755" stroke-linecap="round" stroke-linejoin="round"/>
</g>
<path d="M9.77278 23.7837C6.76647 25.0078 5.31892 26.6331 3.04395 31.18L3.76702 31.7916C3.33733 35.4766 3.49739 37.4216 4.97404 40.5352C6.57605 40.5624 7.82236 40.869 9.16224 40.2012C9.30619 37.6545 9.23605 36.1797 10.141 34.5577C7.0505 23.8896 10.0499 19.8539 23.488 15.908L21.9529 18.1017C34.8014 11.8868 44.6627 16.5195 62.0383 24.1333L59.7764 25.5994L67.2322 27.8193C66.8089 29.4479 65.8383 30.7704 64.3649 31.8224M10.3503 34.5577C13.2805 32.9279 21.4005 34.8621 32.2151 36.6993L28.5291 34.0604C42.2711 35.5088 53.07 35.7528 59.7764 33.8764M59.7764 33.8764C60.2826 35.8292 60.6207 36.8954 61.3663 38.723M59.7764 33.8764C61.6248 33.3592 63.1624 32.681 64.3649 31.8224M64.3649 31.8224C64.6044 34.2179 64.6105 35.5847 64.3649 38.05M4.70341 44.5953C4.38517 43.7703 3.76702 42.7714 3.76702 42.7714V40.2012C5.84351 40.6021 7.11271 40.6404 9.47055 40.5352V39.9274C10.2698 39.9854 10.7128 40.1219 11.5432 40.5352C11.7439 40.1017 11.8046 40.0016 11.8748 39.9274C14.5806 39.6475 16.1414 39.6519 18.9634 39.9274L17.5539 38.8747C20.6099 39.2579 22.3575 39.4987 25.2643 40.2012L24.5596 38.8747C26.3847 39.0476 27.4157 39.3257 29.2438 40.2012L28.7878 38.626C30.9775 39.9185 31.7786 40.955 32.8502 43.0201C15.3051 42.8366 8.49656 43.106 4.70341 44.5953Z" stroke="black" stroke-width="0.547899" stroke-linecap="round"/>
<path d="M4.6577 45.0018C4.58283 44.6789 4.45108 49.3943 4.6577 52.2418C5.25261 52.5534 5.49197 52.7623 5.90507 53.1415L6.35518 59.5181C6.68315 60.2332 6.99442 60.419 7.66801 60.5308L24.3971 60.7184" stroke="black" stroke-width="0.547899" stroke-linecap="round"/>
<path d="M6.64446 111.516C5.63087 116.647 6.30558 118.621 10.5614 119.926C11.8386 120.11 12.1922 119.815 12.4048 118.428C10.4661 116.674 11.3519 112.827 10.2927 114.204C9.23347 115.58 12.4432 116.568 12.9808 116.738C13.5185 116.908 13.7634 116.136 13.9409 116.201C14.1183 116.265 14.0742 113.387 13.5185 111.708" stroke="black" stroke-width="0.547899" stroke-linecap="round"/>
<path d="M14.0254 112.981C17.6235 115.785 19.8024 116.243 23.9153 115.499L24.3398 99.0917M24.8784 78.2734C24.1822 86.4041 24.0348 90.9624 24.3398 99.0917M19.952 77.4955L18.0629 82.459C21.8827 87.4323 23.1437 91.1997 24.3398 99.0917" stroke="black" stroke-width="0.547899" stroke-linecap="round"/>
<path d="M67.9406 8.42419C67.7767 10.3854 67.1422 12.1071 66.2633 13.3057C65.3811 14.5087 64.2846 15.1485 63.1889 15.057C62.0932 14.9655 61.118 14.1525 60.4477 12.8199C59.7798 11.4921 59.4397 9.68894 59.6036 7.72776C59.7674 5.76657 60.4019 4.04485 61.2808 2.84625C62.163 1.64328 63.2596 1.00342 64.3552 1.09495C65.4509 1.18647 66.4261 1.9994 67.0964 3.33206C67.7643 4.65987 68.1044 6.463 67.9406 8.42419Z" stroke="black" stroke-width="0.547899"/>
<ellipse cx="21.1971" cy="50.06" rx="4.78626" ry="2.59035" transform="rotate(-2.44408 21.1971 50.06)" fill="black"/>
<ellipse cx="50.624" cy="49.2734" rx="4.78626" ry="2.59035" transform="rotate(2.87294 50.624 49.2734)" fill="black"/>
<defs>
<clipPath id="clip0_537_51">
<rect width="2.06544" height="2.06544" fill="white" transform="translate(50.1104 81.3573) rotate(-7.39058)"/>
</clipPath>
</defs>
</svg>
