<svg width="183" height="51" viewBox="0 0 183 51" fill="none" xmlns="http://www.w3.org/2000/svg">
    <path d="M1.14551 26.2336L29.8753 43.8233M1.14551 26.2336V31.8037L29.8753 50.566M1.14551 26.2336L13.4583 24.1978L21.6668 22.8406M182.612 15.973L153.589 1.02173L138.638 3.50075M182.612 15.973V23.302L164.73 26.4941M182.612 15.973L164.73 19.2337M29.8753 43.8233V50.566M29.8753 43.8233L48.9308 40.3487M29.8753 50.566L48.9308 47.1645M21.6668 22.8406L48.9308 40.3487M21.6668 22.8406L47.246 18.6114M48.9308 40.3487L73.2632 35.9119M48.9308 40.3487V47.1645M47.246 18.6114L73.2632 35.9119M47.246 18.6114L73.2632 14.3098M73.2632 35.9119L100.82 30.8871M73.2632 35.9119V42.8211M73.2632 14.3098L100.82 30.8871M73.2632 14.3098L91.4392 11.3046M100.82 30.8871L119.583 27.4659M100.82 30.8871V37.9021M91.4392 11.3046L119.583 27.4659M91.4392 11.3046L114.306 7.52384M119.583 27.4659L141.277 23.5102M119.583 27.4659V34.553M114.306 7.52384L141.277 23.5102M114.306 7.52384L138.638 3.50075M141.277 23.5102L164.73 19.2337M141.277 23.5102V30.6805M138.638 3.50075L164.73 19.2337M164.73 19.2337V26.4941M48.9308 47.1645L73.2632 42.8211M73.2632 42.8211L100.82 37.9021M100.82 37.9021L119.583 34.553M119.583 34.553L141.277 30.6805M141.277 30.6805L164.73 26.4941" stroke="black" stroke-width="0.586323"/>
    <path d="M23.1331 20.3702L13.752 22.4224L38.0844 36.7873L48.345 35.0283L23.1331 20.3702Z" fill="black"/>
    <path d="M38.0844 36.7873L13.752 22.4224V24.7677L38.0844 38.8394V36.7873Z" fill="black"/>
    <path d="M48.345 35.0283L38.0844 36.7873V38.8394L48.345 36.7873V35.0283Z" fill="black"/>
    <path d="M13.752 22.4224L23.1331 20.3702L48.345 35.0283M13.752 22.4224L38.0844 36.7873M13.752 22.4224V24.7677L38.0844 38.8394M48.345 35.0283L38.0844 36.7873M48.345 35.0283V36.7873L38.0844 38.8394M38.0844 36.7873V38.8394" stroke="black" stroke-width="0.586323"/>
    <path d="M47.4652 15.3866L38.084 17.4387L61.8301 31.4575L72.0907 29.6985L47.4652 15.3866Z" fill="black"/>
    <path d="M61.8301 31.4575L38.084 17.4387V19.784L61.8301 32.9763V31.4575Z" fill="black"/>
    <path d="M72.0907 29.6985L61.8301 31.4575V32.9763L72.0907 30.9242V29.6985Z" fill="black"/>
    <path d="M38.084 17.4387L47.4652 15.3866L72.0907 29.6985M38.084 17.4387L61.8301 31.4575M38.084 17.4387V19.784L61.8301 32.9763M72.0907 29.6985L61.8301 31.4575M72.0907 29.6985V30.9242L61.8301 32.9763M61.8301 31.4575V32.9763" stroke="black" stroke-width="0.586323"/>
    <path d="M74.729 11.2825L65.0547 12.7483L87.0418 25.7286L97.3024 23.9696L74.729 11.2825Z" fill="black"/>
    <path d="M87.0418 25.7286L65.0547 12.7483V15.0936L87.0418 27.1132V25.7286Z" fill="black"/>
    <path d="M97.3024 23.9696L87.0418 25.7286V27.1132L97.3024 25.0611V23.9696Z" fill="black"/>
    <path d="M65.0547 12.7483L74.729 11.2825L97.3024 23.9696M65.0547 12.7483L87.0418 25.7286M65.0547 12.7483V15.0936L87.0418 27.1132M97.3024 23.9696L87.0418 25.7286M97.3024 23.9696V25.0611L87.0418 27.1132M87.0418 25.7286V27.1132" stroke="black" stroke-width="0.586323"/>
    <path d="M115.479 4.83276L106.098 6.29857L128.085 19.2789L138.345 17.5199L115.479 4.83276Z" fill="black"/>
    <path d="M128.085 19.2789L106.098 6.29857V8.64386L128.085 20.6635V19.2789Z" fill="black"/>
    <path d="M138.345 17.5199L128.085 19.2789V20.6635L138.345 18.6114V17.5199Z" fill="black"/>
    <path d="M106.098 6.29857L115.479 4.83276L138.345 17.5199M106.098 6.29857L128.085 19.2789M106.098 6.29857V8.64386L128.085 20.6635M138.345 17.5199L128.085 19.2789M138.345 17.5199V18.6114L128.085 20.6635M128.085 19.2789V20.6635" stroke="black" stroke-width="0.586323"/>
    <path d="M138.932 1.02173L129.551 3.07386L150.407 14.5072L160.668 12.455L138.932 1.02173Z" fill="black"/>
    <path d="M150.407 14.5072L129.551 3.07386V4.53967L150.407 15.9411V14.5072Z" fill="black"/>
    <path d="M160.668 12.455L150.407 14.5072V15.9411L160.668 13.889V12.455Z" fill="black"/>
    <path d="M129.551 3.07386L138.932 1.02173L160.668 12.455M129.551 3.07386L150.407 14.5072M129.551 3.07386V4.53967L150.407 15.9411M160.668 12.455L150.407 14.5072M160.668 12.455V13.889L150.407 15.9411M150.407 14.5072V15.9411" stroke="black" stroke-width="0.586323"/>
</svg>
