<svg width="224" height="105" viewBox="0 0 224 105" fill="none" xmlns="http://www.w3.org/2000/svg">
    <path d="M93.7533 30.8918L93.869 30.6427L93.6287 30.5096C89.5419 28.2467 87.0333 24.0976 87.5222 19.6977C88.1982 13.6136 94.3766 9.24402 101.395 10.0239C102.482 10.1446 103.523 10.3819 104.504 10.7195L104.738 10.8001L104.858 10.5834C107.091 6.54741 112.069 4.01481 117.546 4.6233C122.96 5.2249 127.226 8.71536 128.571 13.0737L128.64 13.2944L128.87 13.2812C129.667 13.2355 130.482 13.2557 131.309 13.3475C138.327 14.1274 143.396 19.7466 142.72 25.8307C142.284 29.7559 139.566 32.9609 135.8 34.5388L135.558 34.6404L135.631 34.8928C135.987 36.1252 136.112 37.4255 135.964 38.7508C135.288 44.8349 129.11 49.2044 122.091 48.4246C118.713 48.0493 115.779 46.5482 113.724 44.4115L113.554 44.2344L113.349 44.3698C110.875 46.0033 107.683 46.8237 104.305 46.4484C97.2863 45.6685 92.2177 40.0493 92.8937 33.9652C93.0145 32.8779 93.3099 31.8474 93.7533 30.8918Z" stroke="black" stroke-width="0.59"/>
    <path d="M86.3892 28.6173C86.3426 29.0373 86.1937 29.3917 86.0063 29.6262C85.8161 29.8641 85.6178 29.946 85.4588 29.9284C85.2997 29.9107 85.1243 29.7873 84.9909 29.5134C84.8596 29.2435 84.7921 28.865 84.8388 28.445C84.8854 28.025 85.0343 27.6705 85.2218 27.4361C85.4119 27.1981 85.6102 27.1162 85.7693 27.1339C85.9283 27.1516 86.1037 27.275 86.2371 27.5489C86.3684 27.8188 86.4359 28.1972 86.3892 28.6173Z" fill="white" stroke="black" stroke-width="0.59"/>
    <path d="M99.6197 30.0872C99.573 30.5073 99.4241 30.8617 99.2367 31.0962C99.0465 31.3341 98.8483 31.416 98.6892 31.3983C98.5302 31.3807 98.3547 31.2572 98.2214 30.9834C98.09 30.7135 98.0226 30.335 98.0692 29.915C98.1159 29.4949 98.2648 29.1405 98.4522 28.906C98.6424 28.6681 98.8407 28.5862 98.9997 28.6039C99.1588 28.6215 99.3342 28.7449 99.4675 29.0188C99.5989 29.2887 99.6664 29.6672 99.6197 30.0872Z" fill="white" stroke="black" stroke-width="0.59"/>
    <path fill-rule="evenodd" clip-rule="evenodd" d="M91.4957 39.8687C96.249 40.3969 104.7 35.0947 106.487 29.3942C106.901 30.1732 107.319 31.0744 107.72 32.1315C107.72 32.1315 113.613 25.8718 110.07 22.9705C107.782 21.0973 105.738 21.3418 104.577 21.7503C102.22 19.3601 98.2773 17.9128 93.9882 17.4363C89.7585 16.9663 85.9229 17.5216 83.3287 19.3017C82.25 18.6865 80.3798 18.1416 77.8819 19.3941C73.7881 21.4468 78.1635 28.8475 78.1635 28.8475C78.7826 27.9103 79.3846 27.127 79.9558 26.4607C80.3547 32.3998 86.7463 39.341 91.4957 39.8687Z" fill="#F8F8F8"/>
    <path d="M106.487 29.3942L106.748 29.2559L106.417 28.6327L106.206 29.306L106.487 29.3942ZM107.72 32.1315L107.444 32.2361L107.612 32.6772L107.935 32.3337L107.72 32.1315ZM110.07 22.9705L110.257 22.7423L110.07 22.9705ZM104.577 21.7503L104.367 21.9574L104.498 22.0907L104.675 22.0286L104.577 21.7503ZM83.3287 19.3017L83.1825 19.5579L83.3431 19.6495L83.4956 19.5449L83.3287 19.3017ZM77.8819 19.3941L78.0141 19.6578L77.8819 19.3941ZM78.1635 28.8475L77.9096 28.9976L78.1496 29.4037L78.4097 29.0101L78.1635 28.8475ZM79.9558 26.4607L80.2502 26.4409L80.2018 25.7205L79.7319 26.2687L79.9558 26.4607ZM106.206 29.306C105.341 32.0664 102.842 34.7691 99.9392 36.7225C97.0316 38.6793 93.8026 39.8282 91.5283 39.5755L91.4631 40.1619C93.9422 40.4374 97.3155 39.1993 100.269 37.212C103.227 35.2212 105.847 32.4226 106.769 29.4825L106.206 29.306ZM107.996 32.0269C107.591 30.958 107.167 30.0455 106.748 29.2559L106.227 29.5326C106.635 30.3009 107.048 31.1908 107.444 32.2361L107.996 32.0269ZM109.883 23.1988C110.684 23.8543 110.953 24.6917 110.903 25.6098C110.852 26.5426 110.47 27.5526 109.964 28.4999C109.46 29.4432 108.845 30.3014 108.354 30.9257C108.109 31.2373 107.896 31.4893 107.744 31.663C107.669 31.7498 107.608 31.817 107.567 31.8621C107.547 31.8847 107.531 31.9018 107.521 31.9131C107.515 31.9188 107.511 31.923 107.509 31.9257C107.508 31.927 107.507 31.928 107.506 31.9286C107.506 31.9289 107.506 31.9291 107.506 31.9292C107.505 31.9293 107.505 31.9293 107.505 31.9293C107.505 31.9293 107.505 31.9293 107.72 32.1315C107.935 32.3337 107.935 32.3337 107.935 32.3336C107.935 32.3335 107.935 32.3334 107.936 32.3332C107.936 32.333 107.936 32.3326 107.937 32.3321C107.937 32.3312 107.939 32.3299 107.94 32.3283C107.943 32.3249 107.948 32.3201 107.954 32.3138C107.965 32.3013 107.982 32.2829 108.004 32.2589C108.047 32.211 108.11 32.1408 108.189 32.0508C108.346 31.8708 108.565 31.6111 108.818 31.2904C109.321 30.6504 109.958 29.7624 110.484 28.778C111.008 27.7978 111.435 26.6989 111.492 25.6419C111.551 24.5703 111.228 23.5373 110.257 22.7423L109.883 23.1988ZM104.675 22.0286C105.759 21.6473 107.69 21.4031 109.883 23.1988L110.257 22.7423C107.874 20.7914 105.717 21.0364 104.479 21.4721L104.675 22.0286ZM93.9556 17.7295C98.2113 18.2023 102.077 19.6352 104.367 21.9574L104.787 21.5432C102.363 19.0851 98.3432 17.6233 94.0208 17.1431L93.9556 17.7295ZM83.4956 19.5449C86.0068 17.8218 89.7594 17.2632 93.9556 17.7295L94.0208 17.1431C89.7576 16.6694 85.839 17.2214 83.1618 19.0584L83.4956 19.5449ZM78.0141 19.6578C80.4103 18.4563 82.1756 18.9836 83.1825 19.5579L83.4748 19.0454C82.3245 18.3893 80.3492 17.8269 77.7497 19.1304L78.0141 19.6578ZM78.1635 28.8475C78.4174 28.6973 78.4175 28.6974 78.4175 28.6974C78.4175 28.6974 78.4174 28.6973 78.4174 28.6973C78.4173 28.6971 78.4172 28.6969 78.417 28.6965C78.4165 28.6958 78.4159 28.6946 78.4149 28.693C78.413 28.6898 78.4102 28.6849 78.4063 28.6782C78.3986 28.6649 78.387 28.6448 78.3719 28.6183C78.3418 28.5652 78.2978 28.4864 78.243 28.3851C78.1333 28.1824 77.9807 27.8898 77.8101 27.532C77.4682 26.8152 77.0567 25.8429 76.7719 24.812C76.4858 23.7766 76.3346 22.7073 76.4897 21.7861C76.6425 20.8795 77.0891 20.1216 78.0141 19.6578L77.7497 19.1304C76.6279 19.6929 76.0862 20.6299 75.9079 21.6881C75.7321 22.732 75.9072 23.8977 76.2032 24.9691C76.5004 26.0449 76.927 27.0511 77.2776 27.786C77.4531 28.1542 77.6104 28.4558 77.724 28.6658C77.7809 28.7709 77.8268 28.8531 77.8588 28.9095C77.8748 28.9376 77.8873 28.9593 77.8959 28.9741C77.9002 28.9815 77.9035 28.9872 77.9058 28.9912C77.9069 28.9931 77.9078 28.9947 77.9085 28.9957C77.9088 28.9963 77.909 28.9967 77.9092 28.997C77.9093 28.9972 77.9094 28.9973 77.9094 28.9974C77.9095 28.9975 77.9096 28.9976 78.1635 28.8475ZM79.7319 26.2687C79.1528 26.9441 78.5434 27.7373 77.9174 28.6849L78.4097 29.0101C79.0218 28.0834 79.6164 27.3099 80.1798 26.6527L79.7319 26.2687ZM91.5283 39.5755C89.2602 39.3235 86.537 37.5198 84.3157 34.9989C82.0994 32.4839 80.4438 29.3231 80.2502 26.4409L79.6615 26.4804C79.8668 29.5374 81.6063 32.8167 83.873 35.389C86.1345 37.9555 88.9818 39.8862 91.4631 40.1619L91.5283 39.5755Z" fill="black"/>
    <ellipse cx="85.985" cy="28.4307" rx="1.16684" ry="1.82947" transform="rotate(6.34014 85.985 28.4307)" fill="black"/>
    <ellipse cx="99.3997" cy="29.9211" rx="1.19202" ry="1.82947" transform="rotate(6.34014 99.3997 29.9211)" fill="black"/>
    <path d="M97.0206 43.1526C94.3347 43.1534 93.3952 43.818 92.5646 45.9544" stroke="black" stroke-width="0.59"/>
    <path d="M104.172 46.6813C101.784 46.7948 101.189 47.6368 100.917 49.952" stroke="black" stroke-width="0.59"/>
    <path d="M131.168 46.4742C132.059 48.6385 133.091 48.8665 135.276 48.6404" stroke="black" stroke-width="0.59"/>
    <path d="M134.941 41.8494C136.187 44.9275 137.316 45.0058 139.388 44.9184" stroke="black" stroke-width="0.59"/>
    <mask id="path-12-inside-1_432_405" fill="white">
        <path d="M93.2569 47.6929C92.8954 48.2612 91.7961 48.2091 90.8014 47.5765C89.8068 46.9439 89.2935 45.9703 89.655 45.4019C90.0165 44.8336 91.1159 44.8856 92.1105 45.5183C93.1052 46.1509 93.6184 47.1245 93.2569 47.6929ZM90.0147 45.6307C89.7254 46.0856 90.1362 46.8647 90.9322 47.371C91.7281 47.8772 92.6079 47.9189 92.8972 47.4641C93.1865 47.0092 92.7758 46.2301 91.9798 45.7238C91.1838 45.2176 90.304 45.1759 90.0147 45.6307Z"/>
    </mask>
    <path d="M93.2569 47.6929C92.8954 48.2612 91.7961 48.2091 90.8014 47.5765C89.8068 46.9439 89.2935 45.9703 89.655 45.4019C90.0165 44.8336 91.1159 44.8856 92.1105 45.5183C93.1052 46.1509 93.6184 47.1245 93.2569 47.6929ZM90.0147 45.6307C89.7254 46.0856 90.1362 46.8647 90.9322 47.371C91.7281 47.8772 92.6079 47.9189 92.8972 47.4641C93.1865 47.0092 92.7758 46.2301 91.9798 45.7238C91.1838 45.2176 90.304 45.1759 90.0147 45.6307Z" fill="#8D8D8D" stroke="black" stroke-width="1.18" mask="url(#path-12-inside-1_432_405)"/>
    <mask id="path-13-inside-2_432_405" fill="white">
        <path d="M141.224 44.6012C141.699 45.0786 141.407 46.1398 140.571 46.9714C139.736 47.8031 138.674 48.0903 138.198 47.6129C137.723 47.1355 138.015 46.0743 138.851 45.2427C139.686 44.411 140.748 44.1238 141.224 44.6012ZM138.501 47.3121C138.881 47.6941 139.731 47.4643 140.4 46.7988C141.068 46.1332 141.302 45.284 140.921 44.902C140.541 44.52 139.691 44.7498 139.022 45.4153C138.354 46.0809 138.12 46.9301 138.501 47.3121Z"/>
    </mask>
    <path d="M141.224 44.6012C141.699 45.0786 141.407 46.1398 140.571 46.9714C139.736 47.8031 138.674 48.0903 138.198 47.6129C137.723 47.1355 138.015 46.0743 138.851 45.2427C139.686 44.411 140.748 44.1238 141.224 44.6012ZM138.501 47.3121C138.881 47.6941 139.731 47.4643 140.4 46.7988C141.068 46.1332 141.302 45.284 140.921 44.902C140.541 44.52 139.691 44.7498 139.022 45.4153C138.354 46.0809 138.12 46.9301 138.501 47.3121Z" fill="#8D8D8D" stroke="black" stroke-width="1.18" mask="url(#path-13-inside-2_432_405)"/>
    <mask id="path-14-inside-3_432_405" fill="white">
        <path d="M136.514 48.367C137.062 48.7594 136.949 49.8542 136.262 50.8123C135.575 51.7704 134.575 52.2291 134.027 51.8367C133.48 51.4443 133.593 50.3495 134.279 49.3914C134.966 48.4332 135.967 47.9746 136.514 48.367ZM134.276 51.4902C134.714 51.8042 135.515 51.4371 136.064 50.6704C136.614 49.9036 136.704 49.0275 136.266 48.7135C135.828 48.3995 135.027 48.7665 134.477 49.5333C133.928 50.3 133.838 51.1762 134.276 51.4902Z"/>
    </mask>
    <path d="M136.514 48.367C137.062 48.7594 136.949 49.8542 136.262 50.8123C135.575 51.7704 134.575 52.2291 134.027 51.8367C133.48 51.4443 133.593 50.3495 134.279 49.3914C134.966 48.4332 135.967 47.9746 136.514 48.367ZM134.276 51.4902C134.714 51.8042 135.515 51.4371 136.064 50.6704C136.614 49.9036 136.704 49.0275 136.266 48.7135C135.828 48.3995 135.027 48.7665 134.477 49.5333C133.928 50.3 133.838 51.1762 134.276 51.4902Z" fill="#8D8D8D" stroke="black" stroke-width="1.18" mask="url(#path-14-inside-3_432_405)"/>
    <mask id="path-15-inside-4_432_405" fill="white">
        <path d="M101.345 50.523C101.297 51.1949 100.304 51.6709 99.1285 51.5862C97.9528 51.5016 97.0389 50.8883 97.0872 50.2165C97.1356 49.5446 98.1279 49.0686 99.3037 49.1533C100.479 49.2379 101.393 49.8512 101.345 50.523ZM97.5125 50.2471C97.4737 50.7848 98.2051 51.2755 99.146 51.3433C100.087 51.411 100.881 51.0301 100.92 50.4924C100.958 49.9547 100.227 49.464 99.2862 49.3962C98.3453 49.3285 97.5512 49.7095 97.5125 50.2471Z"/>
    </mask>
    <path d="M101.345 50.523C101.297 51.1949 100.304 51.6709 99.1285 51.5862C97.9528 51.5016 97.0389 50.8883 97.0872 50.2165C97.1356 49.5446 98.1279 49.0686 99.3037 49.1533C100.479 49.2379 101.393 49.8512 101.345 50.523ZM97.5125 50.2471C97.4737 50.7848 98.2051 51.2755 99.146 51.3433C100.087 51.411 100.881 51.0301 100.92 50.4924C100.958 49.9547 100.227 49.464 99.2862 49.3962C98.3453 49.3285 97.5512 49.7095 97.5125 50.2471Z" fill="#8D8D8D" stroke="black" stroke-width="1.18" mask="url(#path-15-inside-4_432_405)"/>
    <path d="M166.636 49.3695L166.857 49.2065L166.71 48.9743C164.214 45.026 164.007 40.182 166.55 36.5582C170.067 31.5474 177.585 30.6843 183.365 34.7409C184.26 35.3691 185.059 36.0773 185.757 36.8445L185.924 37.0278L186.133 36.8954C190.031 34.4292 195.614 34.6003 200.124 37.7656C204.584 40.895 206.647 46.0059 205.733 50.4745L205.686 50.7008L205.895 50.8C206.616 51.1427 207.321 51.5522 208.002 52.0299C213.782 56.0865 215.527 63.45 212.011 68.4609C209.742 71.6936 205.818 73.1982 201.758 72.7726L201.496 72.7452L201.439 73.0017C201.159 74.2537 200.644 75.4538 199.878 76.5453C196.361 81.5561 188.843 82.4192 183.063 78.3625C180.281 76.4103 178.429 73.6837 177.653 70.8225L177.589 70.5854L177.344 70.6056C174.39 70.8495 171.196 70.0349 168.414 68.0826C162.634 64.026 160.889 56.6625 164.405 51.6517C165.034 50.7562 165.788 49.9944 166.636 49.3695Z" stroke="black" stroke-width="0.59"/>
    <path d="M161.27 43.8362C161.027 44.1821 160.726 44.4214 160.449 44.5369C160.168 44.6542 159.955 44.6308 159.824 44.5388C159.693 44.4469 159.598 44.2544 159.613 43.9501C159.628 43.6503 159.75 43.286 159.993 42.94C160.236 42.5941 160.537 42.3548 160.814 42.2393C161.095 42.122 161.308 42.1454 161.439 42.2374C161.57 42.3293 161.665 42.5218 161.65 42.8261C161.635 43.1259 161.513 43.4902 161.27 43.8362Z" fill="white" stroke="black" stroke-width="0.59"/>
    <path d="M172.166 51.4828C171.924 51.8287 171.623 52.068 171.346 52.1835C171.065 52.3008 170.851 52.2774 170.72 52.1854C170.589 52.0935 170.495 51.901 170.51 51.5967C170.524 51.2969 170.647 50.9326 170.889 50.5866C171.132 50.2407 171.433 50.0014 171.71 49.8859C171.991 49.7686 172.204 49.792 172.335 49.884C172.466 49.9759 172.561 50.1684 172.546 50.4727C172.532 50.7725 172.409 51.1368 172.166 51.4828Z" fill="white" stroke="black" stroke-width="0.59"/>
    <path fill-rule="evenodd" clip-rule="evenodd" d="M160.342 56.1574C164.257 58.9047 174.216 58.316 178.523 54.1755C178.511 55.0574 178.445 56.0487 178.288 57.1684C178.288 57.1684 186.465 54.5106 184.751 50.2636C183.645 47.5214 181.735 46.7536 180.52 46.5539C179.602 43.3253 176.84 40.1613 173.307 37.6823C169.824 35.2377 166.193 33.8816 163.063 34.1961C162.412 33.1382 161.034 31.7617 158.242 31.6598C153.665 31.4927 153.946 40.0855 153.946 40.0855C154.939 39.5611 155.843 39.1634 156.665 38.8536C154.16 44.2538 156.43 53.4124 160.342 56.1574Z" fill="#F8F8F8"/>
    <path d="M178.523 54.1755L178.818 54.1793L178.827 53.4738L178.318 53.9628L178.523 54.1755ZM178.288 57.1684L177.996 57.1276L177.931 57.5948L178.38 57.449L178.288 57.1684ZM184.751 50.2636L185.025 50.1532L184.751 50.2636ZM180.52 46.5539L180.236 46.6345L180.288 46.8146L180.472 46.8449L180.52 46.5539ZM163.063 34.1961L162.811 34.3506L162.908 34.5081L163.092 34.4896L163.063 34.1961ZM158.242 31.6598L158.231 31.9546L158.242 31.6598ZM153.946 40.0855L153.651 40.0951L153.666 40.5666L154.084 40.3464L153.946 40.0855ZM156.665 38.8536L156.932 38.9777L157.236 38.3227L156.56 38.5776L156.665 38.8536ZM178.318 53.9628C176.233 55.9678 172.743 57.1373 169.259 57.4556C165.768 57.7744 162.384 57.2304 160.511 55.9159L160.172 56.3989C162.214 57.8317 165.767 58.367 169.312 58.0431C172.863 57.7188 176.506 56.5236 178.727 54.3881L178.318 53.9628ZM178.581 57.2092C178.739 56.077 178.806 55.0734 178.818 54.1793L178.228 54.1716C178.216 55.0415 178.151 56.0204 177.996 57.1276L178.581 57.2092ZM184.478 50.3739C184.865 51.3336 184.699 52.1974 184.214 52.9785C183.721 53.7721 182.9 54.4742 182.001 55.0616C181.106 55.6466 180.154 56.1038 179.423 56.4154C179.059 56.5709 178.751 56.6895 178.535 56.769C178.426 56.8088 178.341 56.8387 178.284 56.8586C178.255 56.8686 178.233 56.876 178.218 56.8809C178.211 56.8833 178.205 56.8851 178.202 56.8863C178.2 56.8869 178.199 56.8873 178.198 56.8876C178.198 56.8877 178.197 56.8878 178.197 56.8878C178.197 56.8879 178.197 56.8879 178.197 56.8879C178.197 56.8879 178.197 56.8879 178.288 57.1684C178.38 57.449 178.38 57.4489 178.38 57.4489C178.38 57.4488 178.38 57.4488 178.38 57.4487C178.381 57.4486 178.381 57.4485 178.382 57.4483C178.383 57.4479 178.385 57.4473 178.387 57.4466C178.391 57.4452 178.397 57.4431 178.405 57.4404C178.422 57.435 178.445 57.427 178.476 57.4164C178.537 57.3953 178.626 57.364 178.738 57.3228C178.962 57.2404 179.28 57.1181 179.655 56.9581C180.404 56.6387 181.389 56.166 182.324 55.5556C183.254 54.9477 184.156 54.189 184.715 53.2898C185.281 52.3781 185.494 51.317 185.025 50.1532L184.478 50.3739ZM180.472 46.8449C181.606 47.0315 183.417 47.7454 184.478 50.3739L185.025 50.1532C183.873 47.2974 181.863 46.4758 180.568 46.2628L180.472 46.8449ZM173.138 37.9238C176.643 40.3835 179.344 43.4977 180.236 46.6345L180.804 46.4732C179.86 43.1529 177.037 39.9391 173.477 37.4409L173.138 37.9238ZM163.092 34.4896C166.122 34.1851 169.682 35.4985 173.138 37.9238L173.477 37.4409C169.966 34.9769 166.264 33.578 163.033 33.9025L163.092 34.4896ZM158.231 31.9546C160.909 32.0523 162.204 33.3631 162.811 34.3506L163.314 34.0416C162.62 32.9134 161.158 31.471 158.252 31.365L158.231 31.9546ZM153.946 40.0855C154.241 40.0759 154.241 40.0759 154.241 40.0759C154.241 40.0759 154.241 40.0759 154.241 40.0758C154.241 40.0756 154.241 40.0753 154.241 40.0749C154.241 40.0741 154.241 40.0727 154.241 40.0709C154.24 40.0672 154.24 40.0614 154.24 40.0538C154.24 40.0384 154.239 40.0152 154.239 39.9846C154.238 39.9236 154.237 39.8334 154.238 39.7182C154.239 39.4878 154.246 39.1578 154.268 38.7621C154.313 37.9691 154.419 36.9187 154.665 35.8777C154.911 34.8322 155.292 33.8218 155.871 33.0886C156.441 32.3668 157.197 31.9168 158.231 31.9546L158.252 31.365C156.998 31.3192 156.073 31.8806 155.408 32.7231C154.752 33.554 154.346 34.6604 154.09 35.7423C153.834 36.8286 153.725 37.916 153.679 38.7289C153.656 39.1361 153.649 39.4762 153.648 39.715C153.647 39.8345 153.648 39.9287 153.649 39.9935C153.649 40.0258 153.65 40.0508 153.65 40.068C153.65 40.0765 153.651 40.0831 153.651 40.0877C153.651 40.0899 153.651 40.0917 153.651 40.093C153.651 40.0936 153.651 40.0941 153.651 40.0944C153.651 40.0946 153.651 40.0948 153.651 40.0949C153.651 40.095 153.651 40.0951 153.946 40.0855ZM156.56 38.5776C155.728 38.8917 154.812 39.2944 153.808 39.8246L154.084 40.3464C155.066 39.8278 155.959 39.4352 156.769 39.1296L156.56 38.5776ZM160.511 55.9159C158.643 54.6051 157.122 51.7147 156.385 48.4365C155.65 45.1659 155.717 41.5984 156.932 38.9777L156.397 38.7295C155.108 41.509 155.058 45.2208 155.81 48.5659C156.56 51.9033 158.129 54.9647 160.172 56.3989L160.511 55.9159Z" fill="black"/>
    <ellipse cx="161.006" cy="43.4785" rx="1.16684" ry="1.82947" transform="rotate(35.0601 161.006 43.4785)" fill="black"/>
    <ellipse cx="172.054" cy="51.2316" rx="1.19202" ry="1.82947" transform="rotate(35.0601 172.054 51.2316)" fill="black"/>
    <path d="M163.609 61.6918C161.253 60.4018 160.11 60.5332 158.355 62.0077" stroke="black" stroke-width="0.59"/>
    <path d="M168.186 68.2231C166.037 67.175 165.11 67.6273 163.76 69.5275" stroke="black" stroke-width="0.59"/>
    <path d="M191.959 81.0139C191.701 83.3403 192.496 84.036 194.521 84.8877" stroke="black" stroke-width="0.59"/>
    <path d="M197.491 78.7713C197.104 82.0691 198.057 82.6804 199.916 83.5995" stroke="black" stroke-width="0.59"/>
    <mask id="path-27-inside-5_432_405" fill="white">
        <path d="M158.126 63.8649C157.536 64.1896 156.597 63.6157 156.029 62.5829C155.46 61.5502 155.478 60.4497 156.068 60.125C156.658 59.8002 157.597 60.3742 158.166 61.407C158.734 62.4397 158.716 63.5402 158.126 63.8649ZM156.274 60.4985C155.801 60.7583 155.787 61.639 156.242 62.4655C156.697 63.292 157.448 63.7513 157.921 63.4914C158.393 63.2315 158.407 62.3509 157.952 61.5244C157.497 60.6979 156.746 60.2386 156.274 60.4985Z"/>
    </mask>
    <path d="M158.126 63.8649C157.536 64.1896 156.597 63.6157 156.029 62.5829C155.46 61.5502 155.478 60.4497 156.068 60.125C156.658 59.8002 157.597 60.3742 158.166 61.407C158.734 62.4397 158.716 63.5402 158.126 63.8649ZM156.274 60.4985C155.801 60.7583 155.787 61.639 156.242 62.4655C156.697 63.292 157.448 63.7513 157.921 63.4914C158.393 63.2315 158.407 62.3509 157.952 61.5244C157.497 60.6979 156.746 60.2386 156.274 60.4985Z" fill="#8D8D8D" stroke="black" stroke-width="1.18" mask="url(#path-27-inside-5_432_405)"/>
    <mask id="path-28-inside-6_432_405" fill="white">
        <path d="M201.678 84.2032C201.865 84.8502 201.099 85.6405 199.967 85.9684C198.835 86.2963 197.765 86.0376 197.578 85.3906C197.39 84.7436 198.156 83.9533 199.288 83.6254C200.421 83.2975 201.49 83.5562 201.678 84.2032ZM197.987 85.272C198.137 85.7898 198.993 85.9968 199.899 85.7344C200.805 85.472 201.418 84.8395 201.268 84.3218C201.118 83.804 200.262 83.597 199.356 83.8594C198.45 84.1218 197.837 84.7543 197.987 85.272Z"/>
    </mask>
    <path d="M201.678 84.2032C201.865 84.8502 201.099 85.6405 199.967 85.9684C198.835 86.2963 197.765 86.0376 197.578 85.3906C197.39 84.7436 198.156 83.9533 199.288 83.6254C200.421 83.2975 201.49 83.5562 201.678 84.2032ZM197.987 85.272C198.137 85.7898 198.993 85.9968 199.899 85.7344C200.805 85.472 201.418 84.8395 201.268 84.3218C201.118 83.804 200.262 83.597 199.356 83.8594C198.45 84.1218 197.837 84.7543 197.987 85.272Z" fill="#8D8D8D" stroke="black" stroke-width="1.18" mask="url(#path-28-inside-6_432_405)"/>
    <mask id="path-29-inside-7_432_405" fill="white">
        <path d="M195.738 85.2425C196.03 85.8497 195.405 86.7556 194.342 87.2659C193.28 87.7762 192.182 87.6977 191.89 87.0905C191.599 86.4833 192.224 85.5773 193.286 85.067C194.349 84.5567 195.447 84.6353 195.738 85.2425ZM192.275 86.9059C192.508 87.3918 193.386 87.4547 194.237 87.0463C195.087 86.6379 195.587 85.913 195.354 85.4271C195.121 84.9411 194.242 84.8783 193.392 85.2866C192.541 85.695 192.041 86.42 192.275 86.9059Z"/>
    </mask>
    <path d="M195.738 85.2425C196.03 85.8497 195.405 86.7556 194.342 87.2659C193.28 87.7762 192.182 87.6977 191.89 87.0905C191.599 86.4833 192.224 85.5773 193.286 85.067C194.349 84.5567 195.447 84.6353 195.738 85.2425ZM192.275 86.9059C192.508 87.3918 193.386 87.4547 194.237 87.0463C195.087 86.6379 195.587 85.913 195.354 85.4271C195.121 84.9411 194.242 84.8783 193.392 85.2866C192.541 85.695 192.041 86.42 192.275 86.9059Z" fill="#8D8D8D" stroke="black" stroke-width="1.18" mask="url(#path-29-inside-7_432_405)"/>
    <mask id="path-30-inside-8_432_405" fill="white">
        <path d="M163.86 70.2338C163.495 70.7998 162.396 70.7404 161.405 70.1012C160.415 69.462 159.908 68.485 160.273 67.919C160.638 67.3531 161.737 67.4125 162.728 68.0517C163.718 68.6909 164.225 69.6679 163.86 70.2338ZM160.631 68.1502C160.339 68.6031 160.745 69.385 161.537 69.8965C162.33 70.408 163.209 70.4556 163.502 70.0026C163.794 69.5497 163.388 68.7679 162.596 68.2564C161.803 67.7448 160.924 67.6973 160.631 68.1502Z"/>
    </mask>
    <path d="M163.86 70.2338C163.495 70.7998 162.396 70.7404 161.405 70.1012C160.415 69.462 159.908 68.485 160.273 67.919C160.638 67.3531 161.737 67.4125 162.728 68.0517C163.718 68.6909 164.225 69.6679 163.86 70.2338ZM160.631 68.1502C160.339 68.6031 160.745 69.385 161.537 69.8965C162.33 70.408 163.209 70.4556 163.502 70.0026C163.794 69.5497 163.388 68.7679 162.596 68.2564C161.803 67.7448 160.924 67.6973 160.631 68.1502Z" fill="#8D8D8D" stroke="black" stroke-width="1.18" mask="url(#path-30-inside-8_432_405)"/>
    <path d="M32.6107 70.788L32.5149 70.5306L32.2513 70.6078C27.7682 71.9208 23.0546 70.7853 20.2711 67.3428C16.4222 62.5826 17.6624 55.1175 23.1539 50.6773C24.0041 49.9898 24.905 49.4169 25.8346 48.9574L26.0567 48.8476L25.987 48.6099C24.6894 44.1835 26.3912 38.8636 30.6759 35.3991C34.9121 31.9738 40.3938 31.397 44.4378 33.5066L44.6426 33.6134L44.7955 33.4402C45.3232 32.8419 45.9112 32.2765 46.5578 31.7537C52.0492 27.3135 59.6086 27.6636 63.4575 32.4238C65.9406 35.4948 66.3067 39.6811 64.7796 43.4675L64.6813 43.7112L64.9121 43.8369C66.0387 44.4504 67.0504 45.2767 67.8888 46.3136C71.7377 51.0738 70.4974 58.5389 65.006 62.9791C62.3632 65.1159 59.2321 66.1458 56.268 66.1033L56.0224 66.0997L55.9745 66.3406C55.3955 69.2479 53.7329 72.0941 51.0902 74.2309C45.5987 78.6711 38.0394 78.3211 34.1905 73.5609C33.5027 72.7102 32.978 71.7753 32.6107 70.788Z" stroke="black" stroke-width="0.59"/>
    <path d="M25.8146 74.4222C26.0803 74.7509 26.2275 75.106 26.2623 75.4042C26.2977 75.7067 26.2164 75.9052 26.092 76.0059C25.9675 76.1065 25.7564 76.1444 25.468 76.0465C25.1837 75.95 24.8672 75.7317 24.6015 75.4031C24.3358 75.0745 24.1886 74.7193 24.1538 74.4212C24.1185 74.1186 24.1997 73.9201 24.3241 73.8195C24.4486 73.7189 24.6597 73.681 24.9482 73.7789C25.2324 73.8753 25.5489 74.0936 25.8146 74.4222Z" fill="white" stroke="black" stroke-width="0.59"/>
    <path d="M36.1652 66.0526C36.4309 66.3812 36.5781 66.7364 36.6129 67.0345C36.6483 67.3371 36.567 67.5356 36.4426 67.6362C36.3181 67.7369 36.107 67.7747 35.8185 67.6768C35.5343 67.5804 35.2178 67.3621 34.9521 67.0335C34.6864 66.7048 34.5392 66.3497 34.5044 66.0515C34.469 65.749 34.5503 65.5505 34.6747 65.4498C34.7992 65.3492 35.0103 65.3113 35.2988 65.4092C35.583 65.5057 35.8995 65.724 36.1652 66.0526Z" fill="white" stroke="black" stroke-width="0.59"/>
    <path fill-rule="evenodd" clip-rule="evenodd" d="M37.404 78.7069C41.1229 75.6999 43.2992 65.9632 40.5045 60.6832C41.3491 60.9371 42.2839 61.2738 43.3172 61.7324C43.3172 61.7324 43.0133 53.1404 38.4587 53.6182C35.518 53.9267 34.254 55.5516 33.7274 56.6643C30.3709 56.658 26.5686 58.4425 23.2128 61.1559C19.9035 63.8316 17.6002 66.9485 17.0406 70.0446C15.8446 70.3785 14.1417 71.3246 13.2749 73.981C11.8542 78.3346 20.1922 80.4305 20.1922 80.4305C19.9616 79.3313 19.8283 78.3524 19.7565 77.4777C24.2585 81.3719 33.688 81.7115 37.404 78.7069Z" fill="#F8F8F8"/>
    <path d="M40.5045 60.6832L40.5894 60.4007L39.9136 60.1976L40.2437 60.8212L40.5045 60.6832ZM43.3172 61.7324L43.1975 62.0021L43.6287 62.1935L43.612 61.722L43.3172 61.7324ZM38.4587 53.6182L38.428 53.3248L38.4587 53.6182ZM33.7274 56.6643L33.7269 56.9593L33.914 56.9597L33.9941 56.7905L33.7274 56.6643ZM17.0406 70.0446L17.1199 70.3287L17.298 70.279L17.3309 70.097L17.0406 70.0446ZM13.2749 73.981L13.5553 74.0725L13.2749 73.981ZM20.1922 80.4305L20.1203 80.7166L20.5778 80.8316L20.4809 80.37L20.1922 80.4305ZM19.7565 77.4777L19.9495 77.2546L19.4034 76.7822L19.4625 77.5018L19.7565 77.4777ZM40.2437 60.8212C41.5971 63.378 41.7604 67.0552 41.107 70.4923C40.4526 73.9355 38.9979 77.0388 37.2185 78.4775L37.5894 78.9363C39.529 77.368 41.022 74.0995 41.6867 70.6025C42.3525 67.0995 42.2066 63.2684 40.7652 60.5452L40.2437 60.8212ZM43.4369 61.4628C42.392 60.999 41.4457 60.6581 40.5894 60.4007L40.4195 60.9657C41.2526 61.2161 42.1757 61.5485 43.1975 62.0021L43.4369 61.4628ZM38.4895 53.9116C39.5187 53.8036 40.3034 54.2012 40.9207 54.8826C41.548 55.5748 41.997 56.557 42.3141 57.5833C42.6299 58.6052 42.8074 59.6459 42.9058 60.434C42.955 60.8273 42.9842 61.156 43.0011 61.3858C43.0095 61.5007 43.0149 61.5908 43.0181 61.6517C43.0197 61.6822 43.0208 61.7054 43.0215 61.7208C43.0218 61.7285 43.0221 61.7342 43.0222 61.7379C43.0223 61.7397 43.0223 61.7411 43.0224 61.7419C43.0224 61.7423 43.0224 61.7426 43.0224 61.7428C43.0224 61.7429 43.0224 61.7429 43.0224 61.7429C43.0224 61.7429 43.0224 61.7429 43.3172 61.7324C43.612 61.722 43.612 61.7219 43.612 61.7218C43.612 61.7217 43.612 61.7215 43.612 61.7213C43.612 61.721 43.612 61.7205 43.612 61.7198C43.6119 61.7186 43.6118 61.7168 43.6118 61.7145C43.6116 61.71 43.6113 61.7034 43.6109 61.6949C43.6102 61.6777 43.609 61.6527 43.6073 61.6204C43.6038 61.5558 43.5982 61.4617 43.5895 61.3426C43.572 61.1044 43.5418 60.7656 43.4913 60.3609C43.3904 59.5529 43.2073 58.4754 42.8778 57.4091C42.5496 56.3471 42.0687 55.2708 41.358 54.4864C40.6374 53.6911 39.6761 53.1939 38.428 53.3248L38.4895 53.9116ZM33.9941 56.7905C34.4856 55.7516 35.6706 54.2073 38.4895 53.9116L38.428 53.3248C35.3653 53.6461 34.0223 55.3515 33.4608 56.5382L33.9941 56.7905ZM23.3983 61.3853C26.7279 58.693 30.4657 56.9532 33.7269 56.9593L33.728 56.3693C30.2761 56.3628 26.4092 58.192 23.0273 60.9265L23.3983 61.3853ZM17.3309 70.097C17.8726 67.1 20.1152 64.0399 23.3983 61.3853L23.0273 60.9265C19.6919 63.6234 17.3278 66.797 16.7503 69.9921L17.3309 70.097ZM13.5553 74.0725C14.3869 71.5243 16.0034 70.6404 17.1199 70.3287L16.9612 69.7604C15.6857 70.1166 13.8966 71.1249 12.9945 73.8895L13.5553 74.0725ZM20.1922 80.4305C20.2641 80.1444 20.2642 80.1445 20.2642 80.1445C20.2641 80.1444 20.2641 80.1444 20.264 80.1444C20.2639 80.1444 20.2636 80.1443 20.2632 80.1442C20.2624 80.144 20.2611 80.1437 20.2593 80.1432C20.2557 80.1423 20.2501 80.1409 20.2427 80.1389C20.2278 80.135 20.2054 80.1291 20.1759 80.1212C20.117 80.1052 20.03 80.0811 19.9194 80.0488C19.6983 79.9842 19.3829 79.8868 19.0086 79.7564C18.2586 79.4952 17.2781 79.1037 16.345 78.581C15.4078 78.056 14.5414 77.4114 13.9958 76.6531C13.4588 75.9068 13.2343 75.0563 13.5553 74.0725L12.9945 73.8895C12.6051 75.0825 12.8901 76.1266 13.5169 76.9977C14.1352 77.8569 15.0869 78.5525 16.0566 79.0958C17.0304 79.6412 18.0456 80.0458 18.8146 80.3136C19.1997 80.4478 19.5247 80.5481 19.754 80.6151C19.8686 80.6486 19.9594 80.6738 20.0219 80.6907C20.0532 80.6992 20.0774 80.7055 20.094 80.7099C20.1022 80.712 20.1086 80.7137 20.113 80.7148C20.1152 80.7154 20.117 80.7158 20.1182 80.7161C20.1188 80.7163 20.1193 80.7164 20.1196 80.7165C20.1198 80.7165 20.12 80.7166 20.12 80.7166C20.1202 80.7166 20.1203 80.7166 20.1922 80.4305ZM19.4625 77.5018C19.5352 78.3886 19.6703 79.3796 19.9035 80.4911L20.4809 80.37C20.2528 79.283 20.1213 78.3163 20.0505 77.4535L19.4625 77.5018ZM37.2185 78.4775C35.4439 79.9123 32.2463 80.5792 28.8921 80.3848C25.5455 80.1909 22.1342 79.1444 19.9495 77.2546L19.5635 77.7008C21.8807 79.7052 25.4352 80.7755 28.8579 80.9738C32.2729 81.1717 35.648 80.5061 37.5894 78.9363L37.2185 78.4775Z" fill="black"/>
    <ellipse cx="25.3975" cy="74.578" rx="1.16684" ry="1.82947" transform="rotate(-38.9578 25.3975 74.578)" fill="black"/>
    <ellipse cx="35.8926" cy="66.0917" rx="1.19202" ry="1.82947" transform="rotate(-38.9578 35.8926 66.0917)" fill="black"/>
    <path d="M43.624 77.0906C41.7352 79.0001 41.5467 80.1354 42.481 82.2286" stroke="black" stroke-width="0.59"/>
    <path d="M51.1622 74.4893C49.5629 76.2667 49.7426 77.282 51.1976 79.1033" stroke="black" stroke-width="0.59"/>
    <path d="M70.0049 55.1554C72.1701 56.0444 73.058 55.4712 74.4343 53.7593" stroke="black" stroke-width="0.59"/>
    <path d="M69.3721 49.2203C72.4359 50.5004 73.286 49.7527 74.6815 48.2185" stroke="black" stroke-width="0.59"/>
    <mask id="path-42-inside-9_432_405" fill="white">
        <path d="M44.2036 82.9594C44.3533 83.6161 43.5429 84.3609 42.3936 84.6228C41.2443 84.8848 40.1912 84.5648 40.0416 83.908C39.8919 83.2513 40.7022 82.5065 41.8515 82.2445C43.0008 81.9826 44.0539 82.3026 44.2036 82.9594ZM40.4572 83.8133C40.577 84.3388 41.4197 84.595 42.3395 84.3853C43.2592 84.1757 43.9077 83.5797 43.7879 83.0541C43.6681 82.5285 42.8254 82.2724 41.9057 82.4821C40.9859 82.6917 40.3374 83.2877 40.4572 83.8133Z"/>
    </mask>
    <path d="M44.2036 82.9594C44.3533 83.6161 43.5429 84.3609 42.3936 84.6228C41.2443 84.8848 40.1912 84.5648 40.0416 83.908C39.8919 83.2513 40.7022 82.5065 41.8515 82.2445C43.0008 81.9826 44.0539 82.3026 44.2036 82.9594ZM40.4572 83.8133C40.577 84.3388 41.4197 84.595 42.3395 84.3853C43.2592 84.1757 43.9077 83.5797 43.7879 83.0541C43.6681 82.5285 42.8254 82.2724 41.9057 82.4821C40.9859 82.6917 40.3374 83.2877 40.4572 83.8133Z" fill="black" stroke="black" stroke-width="1.18" mask="url(#path-42-inside-9_432_405)"/>
    <mask id="path-43-inside-10_432_405" fill="white">
        <path d="M75.7471 46.691C76.4207 46.689 76.9695 47.643 76.973 48.8217C76.9765 50.0005 76.4333 50.9577 75.7597 50.9597C75.0861 50.9617 74.5372 50.0077 74.5337 48.8289C74.5303 47.6502 75.0735 46.693 75.7471 46.691ZM75.7584 50.5334C76.2975 50.5318 76.7322 49.7658 76.7294 48.8225C76.7266 47.8791 76.2874 47.1157 75.7483 47.1173C75.2093 47.1189 74.7746 47.8849 74.7773 48.8282C74.7801 49.7716 75.2194 50.535 75.7584 50.5334Z"/>
    </mask>
    <path d="M75.7471 46.691C76.4207 46.689 76.9695 47.643 76.973 48.8217C76.9765 50.0005 76.4333 50.9577 75.7597 50.9597C75.0861 50.9617 74.5372 50.0077 74.5337 48.8289C74.5303 47.6502 75.0735 46.693 75.7471 46.691ZM75.7584 50.5334C76.2975 50.5318 76.7322 49.7658 76.7294 48.8225C76.7266 47.8791 76.2874 47.1157 75.7483 47.1173C75.2093 47.1189 74.7746 47.8849 74.7773 48.8282C74.7801 49.7716 75.2194 50.535 75.7584 50.5334Z" fill="#8D8D8D" stroke="black" stroke-width="1.18" mask="url(#path-43-inside-10_432_405)"/>
    <mask id="path-44-inside-11_432_405" fill="white">
        <path d="M75.1103 52.6874C75.7743 52.5743 76.4731 53.4246 76.6711 54.5866C76.8691 55.7487 76.4913 56.7824 75.8273 56.8955C75.1633 57.0087 74.4645 56.1584 74.2665 54.9963C74.0685 53.8343 74.4463 52.8006 75.1103 52.6874ZM75.7557 56.4753C76.2871 56.3847 76.5894 55.5575 76.431 54.6275C76.2725 53.6976 75.7133 53.0172 75.1819 53.1077C74.6505 53.1982 74.3482 54.0255 74.5066 54.9554C74.6651 55.8854 75.2243 56.5658 75.7557 56.4753Z"/>
    </mask>
    <path d="M75.1103 52.6874C75.7743 52.5743 76.4731 53.4246 76.6711 54.5866C76.8691 55.7487 76.4913 56.7824 75.8273 56.8955C75.1633 57.0087 74.4645 56.1584 74.2665 54.9963C74.0685 53.8343 74.4463 52.8006 75.1103 52.6874ZM75.7557 56.4753C76.2871 56.3847 76.5894 55.5575 76.431 54.6275C76.2725 53.6976 75.7133 53.0172 75.1819 53.1077C74.6505 53.1982 74.3482 54.0255 74.5066 54.9554C74.6651 55.8854 75.2243 56.5658 75.7557 56.4753Z" fill="#8D8D8D" stroke="black" stroke-width="1.18" mask="url(#path-44-inside-11_432_405)"/>
    <mask id="path-45-inside-12_432_405" fill="white">
        <path d="M51.9046 79.2008C52.3481 79.7078 51.9884 80.748 51.1012 81.5241C50.214 82.3003 49.1352 82.5185 48.6917 82.0115C48.2482 81.5045 48.6079 80.4644 49.4951 79.6882C50.3823 78.9121 51.461 78.6939 51.9046 79.2008ZM49.0126 81.7308C49.3675 82.1365 50.2308 81.9619 50.9408 81.3408C51.6508 80.7197 51.9386 79.8872 51.5837 79.4815C51.2288 79.0758 50.3655 79.2505 49.6555 79.8716C48.9455 80.4927 48.6577 81.3251 49.0126 81.7308Z"/>
    </mask>
    <path d="M51.9046 79.2008C52.3481 79.7078 51.9884 80.748 51.1012 81.5241C50.214 82.3003 49.1352 82.5185 48.6917 82.0115C48.2482 81.5045 48.6079 80.4644 49.4951 79.6882C50.3823 78.9121 51.461 78.6939 51.9046 79.2008ZM49.0126 81.7308C49.3675 82.1365 50.2308 81.9619 50.9408 81.3408C51.6508 80.7197 51.9386 79.8872 51.5837 79.4815C51.2288 79.0758 50.3655 79.2505 49.6555 79.8716C48.9455 80.4927 48.6577 81.3251 49.0126 81.7308Z" fill="black" stroke="black" stroke-width="1.18" mask="url(#path-45-inside-12_432_405)"/>
    <path d="M47 105H183C183 100.575 178.568 96.4694 171 93.0839C166.866 91.2343 161.795 89.5996 156 88.245C149.89 86.8168 142.974 85.7 135.5 84.9711C129.031 84.3402 122.144 84 115 84C108.95 84 103.084 84.244 97.5 84.702C91.2703 85.2129 85.3918 85.99 80 86.9916C71.6727 88.5385 64.5063 90.6206 59 93.0839C51.432 96.4694 47 100.575 47 105Z" fill="black"/>
    <path d="M59 93.0839C64.5063 90.6206 71.6727 88.5385 80 86.9916C85.3918 85.99 91.2703 85.2129 97.5 84.702C103.084 84.244 108.95 84 115 84C122.144 84 129.031 84.3402 135.5 84.9711C142.974 85.7 149.89 86.8168 156 88.245C161.795 89.5996 166.866 91.2343 171 93.0839L173.347 86.9916L174.5 84C174.5 84 171.652 79.7956 162 75.7663C156.737 73.5691 149.451 71.424 139.5 70.041C132.661 69.0905 124.564 68.5 115 68.5C105.898 68.5 98.1246 69.0348 91.5 69.9058C82.5506 71.0824 75.6981 72.8724 70.5 74.7861C58.8317 79.0817 55.5 84 55.5 84L56.6527 86.9916L59 93.0839Z" fill="#F8F8F8"/>
    <path d="M56.893 86.7948C68.4339 77.4369 91.3509 72.3622 114.705 72.3633M115 72.3636C137.108 72.4051 159.567 76.997 173.101 86.8114M114.705 83.7052C108.829 83.7129 103.128 83.9505 97.692 84.3903L93.5147 74.0891C99.7639 73.2201 106.323 72.7401 112.941 72.6679C113.528 72.6615 114.117 72.6583 114.705 72.6583V83.7052ZM135.28 84.6534C128.963 84.0456 122.252 83.7143 115.295 83.7052V72.6594C122.968 72.6879 130.673 73.2656 138.022 74.4188L135.28 84.6534ZM138.175 73.8457C130.768 72.6799 123.01 72.098 115.295 72.0694V68.7952C124.565 68.807 132.445 69.3756 139.129 70.2876L138.175 73.8457ZM138.761 73.9393L139.717 70.3693C149.335 71.725 156.431 73.7939 161.599 75.9195L159.886 79.4832C153.505 77.0011 146.322 75.164 138.761 73.9393ZM160.436 79.6998L162.144 76.1469C166.799 78.1165 169.822 80.115 171.684 81.6233C172.632 82.3914 173.278 83.0328 173.686 83.4791C173.89 83.7023 174.035 83.8768 174.127 83.994C174.141 84.0123 174.155 84.0293 174.167 84.0448L173.21 86.5266C169.538 83.8732 165.219 81.6023 160.436 79.6998ZM160.18 80.2327C164.991 82.1436 169.324 84.4272 172.991 87.0963L170.836 92.6884C166.82 90.9192 161.953 89.3519 156.425 88.042L160.18 80.2327ZM179.632 98.8633C181.557 100.74 182.604 102.701 182.698 104.705H47.3019C47.3956 102.701 48.443 100.74 50.3679 98.8633C52.3879 96.8937 55.3539 95.0381 59.1205 93.3531C59.1206 93.3531 59.1207 93.353 59.1208 93.353C64.5992 90.9023 71.7414 88.8258 80.0539 87.2816C85.435 86.2821 91.3035 85.5061 97.5241 84.996C103.1 84.5387 108.957 84.295 115 84.295C122.135 84.295 129.012 84.6348 135.471 85.2647C142.934 85.9925 149.837 87.1074 155.933 88.5323C161.715 89.8838 166.766 91.5131 170.879 93.353C170.879 93.353 170.879 93.3531 170.88 93.3531C174.646 95.0381 177.612 96.8937 179.632 98.8633ZM79.4699 86.7908C71.4718 88.3042 64.5523 90.3149 59.1638 92.6884L57.0045 87.0843C61.0962 83.7458 66.658 80.9458 73.194 78.7276L79.4699 86.7908ZM72.8106 78.235C66.39 80.4316 60.8858 83.1979 56.7815 86.5055L55.8334 84.0448C55.8516 84.0212 55.8726 83.9943 55.8966 83.9642C56.0057 83.8273 56.1763 83.6244 56.4182 83.366C56.902 82.8494 57.6714 82.1111 58.8045 81.2375C61.0442 79.5109 64.7073 77.2544 70.3998 75.1377L72.8106 78.235ZM73.4025 78.0349L70.9815 74.9245C76.0653 73.0875 82.7084 71.3738 91.3124 70.2282L92.6842 73.611C88.3875 74.2323 84.2409 75.0382 80.326 76.0227C77.9261 76.6263 75.6118 77.2974 73.4025 78.0349ZM91.917 70.149C98.3726 69.3183 105.914 68.8064 114.705 68.7952V72.0683C114.114 72.0683 113.524 72.0715 112.934 72.0779C106.242 72.151 99.6067 72.6395 93.2861 73.5253L91.917 70.149ZM92.9126 74.1742L97.0759 84.4412C91.0531 84.9473 85.361 85.7025 80.1226 86.6689L73.787 78.5289C75.9198 77.8227 78.1531 77.1776 80.4699 76.5949C84.4078 75.6045 88.5835 74.7956 92.9126 74.1742ZM159.629 80.0165L155.837 87.9041C149.864 86.5202 143.134 85.4328 135.875 84.7116L138.608 74.5121C146.141 75.7288 153.288 77.5541 159.629 80.0165Z" stroke="black" stroke-width="0.59"/>
</svg>
