<svg width="181" height="95" viewBox="0 0 181 95" fill="none" xmlns="http://www.w3.org/2000/svg">
    <path d="M90.4332 9.02361C85.3928 8.12603 76.8895 33.282 76.8895 33.282C76.8895 33.282 52.6268 32.1725 47.5864 35.1644C42.546 38.1564 71.657 54.5248 71.657 54.5248C71.657 54.5248 57.7218 79.358 62.1692 81.7515C66.6166 84.1451 89.4467 66.4926 89.4467 66.4926C89.4467 66.4926 113.955 86.192 118.106 83.7984C122.257 81.4049 107.533 54.5248 107.533 54.5248C107.533 54.5248 133.541 38.4556 130.872 35.1644C128.204 31.8733 101.01 33.2819 101.01 33.2819C101.01 33.2819 95.4736 9.92119 90.4332 9.02361Z" stroke="black" stroke-width="0.59" stroke-linecap="round"/>
    <path d="M17.997 56.094C15.7524 56.6009 16.6158 68.5048 16.6158 68.5048C16.6158 68.5048 6.37111 72.2753 4.8047 74.3936C3.23828 76.5119 18.1518 78.2172 18.1518 78.2172C18.1518 78.2172 16.7086 90.9343 18.9684 91.1505C21.2281 91.3667 27.6081 80.0734 27.6081 80.0734C27.6081 80.0734 41.1956 83.9612 42.4978 82.2459C43.8001 80.5306 33.0139 71.9622 33.0139 71.9622C33.0139 71.9622 40.9864 60.7708 39.3071 59.8727C37.6279 58.9745 26.608 64.2993 26.608 64.2993C26.608 64.2993 20.2415 55.587 17.997 56.094Z" stroke="black" stroke-width="0.59" stroke-linecap="round"/>
    <path d="M30.4274 30.1445C29.6905 29.757 27.1327 33.2365 27.1327 33.2365C27.1327 33.2365 23.4271 31.8686 22.4985 32.0839C21.5698 32.2991 25.2746 36.2708 25.2746 36.2708C25.2746 36.2708 21.8909 39.4326 22.4622 40.0228C23.0334 40.613 27.4418 39.0025 27.4418 39.0025C27.4418 39.0025 30.269 43.2636 31.0303 43.0972C31.7916 42.9309 30.8347 38.0392 30.8347 38.0392C30.8347 38.0392 35.6575 36.8308 35.4062 36.1892C35.1548 35.5476 30.8709 34.4255 30.8709 34.4255C30.8709 34.4255 31.1643 30.5321 30.4274 30.1445Z" fill="black" stroke="black" stroke-width="0.59" stroke-linecap="round"/>
    <path d="M13.4274 12.1445C12.6905 11.757 10.1327 15.2365 10.1327 15.2365C10.1327 15.2365 6.4271 13.8686 5.49846 14.0839C4.56982 14.2991 8.27464 18.2708 8.27464 18.2708C8.27464 18.2708 4.89088 21.4326 5.46216 22.0228C6.03344 22.613 10.4418 21.0025 10.4418 21.0025C10.4418 21.0025 13.269 25.2636 14.0303 25.0972C14.7916 24.9309 13.8347 20.0392 13.8347 20.0392C13.8347 20.0392 18.6575 18.8308 18.4062 18.1892C18.1548 17.5476 13.8709 16.4255 13.8709 16.4255C13.8709 16.4255 14.1643 12.5321 13.4274 12.1445Z" stroke="black" stroke-width="0.59" stroke-linecap="round"/>
    <path d="M44.4274 9.14454C43.6905 8.75698 41.1327 12.2365 41.1327 12.2365C41.1327 12.2365 37.4271 10.8686 36.4985 11.0839C35.5698 11.2991 39.2746 15.2708 39.2746 15.2708C39.2746 15.2708 35.8909 18.4326 36.4622 19.0228C37.0334 19.613 41.4418 18.0025 41.4418 18.0025C41.4418 18.0025 44.269 22.2636 45.0303 22.0972C45.7916 21.9309 44.8347 17.0392 44.8347 17.0392C44.8347 17.0392 49.6575 15.8308 49.4062 15.1892C49.1548 14.5476 44.8709 13.4255 44.8709 13.4255C44.8709 13.4255 45.1643 9.5321 44.4274 9.14454Z" stroke="black" stroke-width="0.59" stroke-linecap="round"/>
    <path d="M133.427 51.1445C132.691 50.757 130.133 54.2365 130.133 54.2365C130.133 54.2365 126.427 52.8686 125.498 53.0839C124.57 53.2991 128.275 57.2708 128.275 57.2708C128.275 57.2708 124.891 60.4326 125.462 61.0228C126.033 61.613 130.442 60.0025 130.442 60.0025C130.442 60.0025 133.269 64.2636 134.03 64.0972C134.792 63.9309 133.835 59.0392 133.835 59.0392C133.835 59.0392 138.657 57.8308 138.406 57.1892C138.155 56.5476 133.871 55.4255 133.871 55.4255C133.871 55.4255 134.164 51.5321 133.427 51.1445Z" fill="black" stroke="black" stroke-width="0.59" stroke-linecap="round"/>
    <path d="M152.759 64.7389C151.932 64.8374 151.797 69.1538 151.797 69.1538C151.797 69.1538 147.969 70.1274 147.326 70.8311C146.683 71.5348 151.987 72.7068 151.987 72.7068C151.987 72.7068 150.991 77.2296 151.797 77.392C152.602 77.5543 155.321 73.7287 155.321 73.7287C155.321 73.7287 160.065 75.6365 160.598 75.0679C161.131 74.4994 157.57 71.0119 157.57 71.0119C157.57 71.0119 160.858 67.2826 160.287 66.8965C159.716 66.5104 155.551 68.0143 155.551 68.0143C155.551 68.0143 153.586 64.6405 152.759 64.7389Z" fill="black" stroke="black" stroke-width="0.59" stroke-linecap="round"/>
    <path d="M148.372 8.6685C150.223 7.30205 158.664 15.7403 158.664 15.7403C158.664 15.7403 168.216 10.4562 170.843 10.6565C173.47 10.8569 165.007 23.2542 165.007 23.2542C165.007 23.2542 175.571 30.4795 174.257 32.3303C172.942 34.1812 160.227 31.6218 160.227 31.6218C160.227 31.6218 154.282 44.4433 152.132 44.3066C149.983 44.17 150.555 30.4066 150.555 30.4066C150.555 30.4066 136.875 29.1185 137.294 27.2608C137.712 25.403 148.948 20.549 148.948 20.549C148.948 20.549 146.521 10.0349 148.372 8.6685Z" stroke="black" stroke-width="0.59" stroke-linecap="round"/>
    <path d="M105.34 19.6622L106.252 9.02356" stroke="black" stroke-width="0.59" stroke-linecap="round"/>
    <path d="M110.811 20.878L118.106 13.2789" stroke="black" stroke-width="0.59" stroke-linecap="round"/>
    <path d="M112.026 24.8297L122.658 24.9025" stroke="black" stroke-width="0.59" stroke-linecap="round"/>
</svg>
